<?xml version="1.0" standalone="no"?>
<!DOCTYPE svg PUBLIC "-//W3C//DTD SVG 20010904//EN"
 "http://www.w3.org/TR/2001/REC-SVG-20010904/DTD/svg10.dtd">
<svg version="1.0" xmlns="http://www.w3.org/2000/svg"
 width="512.000000pt" height="512.000000pt" viewBox="0 0 512.000000 512.000000"
 preserveAspectRatio="xMidYMid meet">

<g transform="translate(0.000000,512.000000) scale(0.100000,-0.100000)"
fill="#000000" stroke="none">
<path d="M2390 5110 c-778 -70 -1444 -636 -1635 -1389 -43 -171 -57 -284 -57
-466 0 -97 7 -218 16 -280 15 -109 12 -156 -12 -201 -6 -11 -47 -60 -91 -110
-143 -158 -211 -330 -213 -539 -1 -131 17 -213 73 -334 129 -279 411 -461 712
-461 110 0 111 -1 117 -164 5 -135 5 -136 35 -165 17 -17 62 -43 100 -60 l70
-29 5 -274 c6 -297 6 -299 70 -386 42 -59 105 -96 224 -133 260 -81 471 -112
756 -112 285 0 496 31 756 112 119 37 182 74 224 133 64 87 64 89 70 386 l5
274 70 29 c39 17 84 43 100 60 30 29 30 30 35 165 6 163 7 164 116 164 303 0
583 181 713 461 56 121 74 203 73 334 -2 209 -70 381 -213 539 -44 50 -85 99
-91 110 -24 45 -27 93 -12 206 34 251 18 520 -43 750 -190 710 -788 1249
-1513 1364 -123 19 -339 27 -460 16z m360 -181 c406 -50 747 -220 1030 -515
197 -205 333 -444 410 -718 55 -196 74 -462 46 -656 -36 -254 -16 -323 138
-490 90 -98 140 -194 163 -311 56 -297 -109 -588 -395 -696 -50 -18 -100 -27
-197 -34 -114 -9 -136 -14 -180 -38 -86 -48 -125 -138 -125 -291 l0 -67 -92
-36 c-51 -20 -136 -50 -188 -66 l-95 -29 -5 153 c-4 135 -7 156 -25 175 -31
34 -61 42 -100 26 -18 -8 -38 -23 -44 -34 -7 -13 -11 -88 -11 -191 l0 -170
-32 -5 c-18 -3 -60 -10 -92 -16 -115 -19 -106 -29 -106 120 0 126 -1 132 -25
155 -36 37 -86 37 -125 -1 -24 -23 -25 -30 -28 -164 l-4 -140 -108 0 -108 0
-4 140 c-3 134 -4 141 -28 164 -39 38 -89 38 -125 1 -24 -23 -25 -29 -25 -155
0 -149 9 -139 -106 -120 -32 6 -74 13 -91 16 l-33 5 0 170 c0 103 -4 178 -11
191 -6 11 -26 26 -44 34 -39 16 -69 8 -100 -26 -18 -19 -21 -40 -25 -175 l-5
-154 -115 38 c-63 21 -148 51 -187 66 l-73 27 0 73 c0 156 -35 236 -127 287
-45 26 -66 30 -175 38 -68 5 -141 14 -163 20 -150 45 -312 182 -378 320 -37
79 -67 199 -67 273 0 104 45 250 103 337 17 25 61 78 98 118 38 40 81 99 96
130 25 51 28 68 28 162 0 58 -6 157 -14 220 -21 183 -5 389 48 597 133 519
548 973 1054 1152 249 88 526 120 767 90z m-953 -4115 l62 -16 3 -138 c3 -131
4 -140 27 -164 18 -19 34 -26 60 -26 73 1 91 36 91 179 l0 110 33 -5 c17 -3
68 -11 112 -17 l80 -12 3 -161 c2 -159 3 -162 29 -188 34 -34 82 -35 120 -2
l28 24 3 156 4 156 108 0 108 0 4 -156 3 -156 28 -24 c38 -33 86 -32 120 2 26
26 27 29 29 188 l3 161 80 12 c44 6 95 14 113 17 l32 5 0 -110 c0 -110 7 -142
39 -166 27 -21 77 -15 108 11 28 24 28 25 31 164 l3 140 78 21 c43 12 80 21
84 21 4 0 7 -95 7 -210 0 -286 -3 -292 -184 -346 -109 -34 -270 -69 -386 -85
-121 -17 -477 -18 -595 -1 -233 33 -485 104 -527 149 -46 50 -48 61 -48 284
l0 211 23 -6 c12 -3 50 -13 84 -22z"/>
<path d="M1573 3504 c-19 -10 -36 -28 -42 -46 -7 -18 -11 -121 -11 -252 l0
-221 -98 0 c-90 0 -103 -3 -164 -33 -77 -38 -130 -92 -167 -171 -23 -50 -26
-68 -26 -166 1 -86 6 -126 24 -185 61 -199 185 -353 362 -448 l69 -37 0 -120
c0 -101 3 -125 19 -152 23 -37 68 -50 108 -31 42 20 53 52 53 158 l0 96 108 0
c165 1 289 41 428 140 108 76 132 121 100 182 -8 15 -154 166 -325 337 l-311
310 0 288 c0 319 -3 336 -61 356 -18 6 -32 11 -33 11 -1 0 -15 -8 -33 -16z"/>
<path d="M3475 3506 c-52 -23 -55 -41 -55 -354 l0 -287 -311 -310 c-171 -171
-317 -322 -325 -337 -32 -61 -8 -106 100 -182 139 -99 263 -139 429 -140 l107
0 0 -96 c0 -106 11 -138 54 -159 42 -20 87 -4 108 39 14 27 18 61 18 150 l0
115 69 37 c177 95 301 249 362 448 18 59 23 99 24 185 0 99 -3 116 -27 167
-34 73 -103 142 -176 176 -50 24 -70 27 -154 27 l-98 0 0 221 c0 131 -4 233
-11 252 -6 19 -23 36 -44 46 -39 19 -32 19 -70 2z"/>
<path d="M2561 2073 c-27 -23 -226 -369 -246 -428 -31 -93 -9 -191 62 -266 62
-66 112 -84 238 -84 126 0 176 18 238 84 71 75 93 173 62 266 -20 59 -219 405
-246 428 -12 9 -36 17 -54 17 -18 0 -42 -8 -54 -17z"/>
</g>
</svg>
